# xmcd
#
# Track frame offsets: 
#        150
#        13940
#        26019
#        37812
#        52887
#        65482
#        78627
#        92102
#        112404
#        132787
#        149177
#        160307
#
# Disc length: 2343 seconds
#
# Revision: 1
# Processed by: cddbd v1.5.1PL2 Copyright (c) Steve Scherf et al.
# Submitted via: ExactAudioCopy v0.95b3
#
DISCID=ab09250c
DTITLE=Steve Earle - I Feel Alright
DYEAR=1996
DGENRE=Rock
TTITLE0=Feel Alright
TTITLE1=Hard Core Troubadour
TTITLE2=More Than I Can Do
TTITLE3=Hurtin' Me, Hurtin' You
TTITLE4=Now She's Gone
TTITLE5=Poor Boy
TTITLE6=Valentine's Day
TTITLE7=The Unrepentant
TTITLE8=CCKMP
TTITLE9=Billy And Bonnie
TTITLE10=South Nashville Blues
TTITLE11=You're Still Standing There
EXTD=
EXTT0=
EXTT1=
EXTT2=
EXTT3=
EXTT4=
EXTT5=
EXTT6=
EXTT7=
EXTT8=
EXTT9=
EXTT10=
EXTT11=
PLAYORDER=
